<svg xmlns="http://www.w3.org/2000/svg" version="1.1" xmlns:xlink="http://www.w3.org/1999/xlink" xmlns:svgjs="http://svgjs.dev/svgjs" width="1500" height="1500" viewBox="0 0 1500 1500"><rect width="1500" height="1500" fill="#ffffff"></rect><g transform="matrix(0.6666666666666666,0,0,0.6666666666666666,249.39393939393938,630.5274557057742)"><svg viewBox="0 0 396 95" data-background-color="#ffffff" preserveAspectRatio="xMidYMid meet" height="359" width="1500" xmlns="http://www.w3.org/2000/svg" xmlns:xlink="http://www.w3.org/1999/xlink"><g id="tight-bounds" transform="matrix(1,0,0,1,0.2400000000000091,-0.0770541450496296)"><svg viewBox="0 0 395.52 95.15410829009926" height="95.15410829009926" width="395.52"><g><svg viewBox="0 0 555.9921721553422 133.76046560911445" height="95.15410829009926" width="395.52"><g transform="matrix(1,0,0,1,0,38.59304293113951)"><svg viewBox="0 0 395.52 56.57437974683544" height="56.57437974683544" width="395.52"><g id="textblocktransform"><svg viewBox="0 0 395.52 56.57437974683544" height="56.57437974683544" width="395.52" id="textblock"><g><svg viewBox="0 0 395.52 56.57437974683544" height="56.57437974683544" width="395.52"><g transform="matrix(1,0,0,1,0,0)"><svg width="395.52" viewBox="0.05 -32.57 231.42 33.11" height="56.57437974683544" data-palette-color="#39a9e1"><path d="M15.23 0.15L13.18 0.15 2.54-26.12 0.05-26.81 0.2-28.66 10.3-28.66 10.4-26.81 7.42-26.12 15.82-4.83 14.84-4.83 22.71-26.12 19.29-26.81 19.43-28.66 28.42-28.66 28.52-26.81 26.07-26.12 15.23 0.15ZM38.52 0.39L38.52 0.39Q35.69 0.39 33.4-0.88 31.1-2.15 29.78-4.52 28.46-6.88 28.46-10.11L28.46-10.11Q28.46-13.57 29.88-16.11 31.3-18.65 33.59-20.04 35.89-21.44 38.52-21.39L38.52-21.39Q42.33-21.34 44.48-18.87 46.63-16.41 46.63-11.82L46.63-11.82 46.63-10.94 31.64-10.94 31.64-13.09 43.41-13.09 42.87-12.45 42.87-13.48Q42.87-16.26 41.62-17.8 40.38-19.34 38.13-19.34L38.13-19.34Q36.77-19.34 35.5-18.53 34.23-17.72 33.44-16.09 32.66-14.45 32.66-11.96L32.66-11.96 32.66-11.38Q32.66-7.37 34.64-5.13 36.62-2.88 39.74-2.88L39.74-2.88Q41.5-2.88 42.84-3.54 44.19-4.2 45.46-5.76L45.46-5.76 46.68-4.64Q45.31-2.1 43.21-0.85 41.11 0.39 38.52 0.39ZM59.91 0L49.9 0 49.8-1.76 52.83-2.49Q52.88-2.83 52.9-3.42 52.92-4 52.97-5.03 53.02-6.05 53.02-7.71L53.02-7.71 53.07-11.47Q53.07-13.09 52.95-14.7 52.83-16.31 52.68-17.19L52.68-17.19 49.56-17.87 49.56-19.48 56.1-21.29 56.93-20.51 56.68-17.92 56.83-17.87Q58.54-19.73 60.2-20.56 61.86-21.39 63.81-21.39L63.81-21.39Q65.62-21.39 67.21-20.48 68.79-19.58 69.79-17.7 70.8-15.82 70.8-12.99L70.8-12.99 70.8-7.57Q70.8-5.81 70.87-4.39 70.94-2.98 71.09-2.49L71.09-2.49 74.12-1.76 73.97 0 64.16 0 64.06-1.76 66.89-2.49Q66.94-2.88 66.99-3.47 67.04-4.05 67.06-4.98 67.08-5.91 67.08-7.23L67.08-7.23 67.08-12.5Q67.08-14.7 66.33-15.99 65.57-17.29 64.45-17.85 63.33-18.41 62.15-18.41L62.15-18.41Q60.54-18.41 59.17-17.63 57.81-16.85 56.78-15.38L56.78-15.38 56.78-8.06Q56.78-5.76 56.86-4.39 56.93-3.03 57.03-2.49L57.03-2.49 60.05-1.76 59.91 0ZM91.2-4.25L92.08-3.03Q91.15-1.42 89.54-0.51 87.93 0.39 86.17 0.39L86.17 0.39Q83.24 0.39 81.32-1.42 79.39-3.22 79.39-6.84L79.39-6.84 79.53-18.51 76.12-18.51 76.12-19.53 82.41-25.24 83.34-25.24 83.24-19.63 83.2-7.62Q83.2-5.08 84.29-3.86 85.39-2.64 87.39-2.64L87.39-2.64Q88.52-2.64 89.47-3.1 90.42-3.56 91.2-4.25L91.2-4.25ZM90.62-18.51L81.49-18.51 81.49-20.95 90.62-20.95 90.62-18.51ZM114-3.42L114-3.42 117.08-2.64 117.08-1.03 110.73 0.54 110-0.1 110.05-3.17 109.9-3.22Q108.49-1.22 107-0.42 105.51 0.39 103.8 0.39L103.8 0.39Q100.53 0.39 98.33-1.64 96.13-3.66 96.13-7.71L96.13-7.71 96.13-11.91Q96.13-13.23 96.06-14.55 95.99-15.87 95.89-17.19L95.89-17.19 92.57-17.87 92.57-19.48 99.21-21.29 100.09-20.51Q99.99-18.99 99.94-17.29 99.89-15.58 99.89-13.72L99.89-13.72 99.84-8.35Q99.84-5.32 101.26-4.03 102.68-2.73 104.87-2.73L104.87-2.73Q106.19-2.73 107.56-3.42 108.93-4.1 109.95-5.76L109.95-5.76 109.95-11.43Q109.95-12.5 109.93-13.55 109.9-14.6 109.85-15.55 109.8-16.5 109.71-17.19L109.71-17.19 106.14-17.87 106.14-19.48 113.03-21.29 113.76-20.61Q113.71-19.24 113.69-18.19 113.66-17.14 113.66-16.09 113.66-15.04 113.66-13.67L113.66-13.67 113.66-10.21Q113.66-7.52 113.78-5.88 113.91-4.25 114-3.42ZM131.19 0L119.91 0 119.76-1.76 122.79-2.49Q122.84-2.73 122.89-3.34 122.94-3.96 122.96-5.05 122.99-6.15 122.99-7.71L122.99-7.71 123.03-11.52Q123.03-13.13 122.91-14.72 122.79-16.31 122.64-17.19L122.64-17.19 119.52-17.87 119.52-19.48 126.06-21.29 126.75-20.61 126.55-16.5 126.7-16.46Q128.16-19.29 129.65-20.29 131.14-21.29 132.51-21.29L132.51-21.29Q133.63-21.29 134.39-20.7 135.14-20.12 135.14-19.04L135.14-19.04Q135.14-17.92 134.34-17.29 133.53-16.65 132.31-16.65L132.31-16.65Q131.43-16.65 130.63-17.04 129.82-17.43 129.09-18.12L129.09-18.12 129.97-17.82Q129.09-17.24 128.26-16.16 127.43-15.09 126.7-13.57L126.7-13.57 126.75-9.03Q126.79-7.81 126.84-6.52 126.89-5.22 126.94-4.13 126.99-3.03 127.04-2.49L127.04-2.49 131.29-1.86 131.19 0ZM147.1 0.39L147.1 0.39Q144.27 0.39 141.98-0.88 139.68-2.15 138.36-4.52 137.05-6.88 137.05-10.11L137.05-10.11Q137.05-13.57 138.46-16.11 139.88-18.65 142.17-20.04 144.47-21.44 147.1-21.39L147.1-21.39Q150.91-21.34 153.06-18.87 155.21-16.41 155.21-11.82L155.21-11.82 155.21-10.94 140.22-10.94 140.22-13.09 151.99-13.09 151.45-12.45 151.45-13.48Q151.45-16.26 150.2-17.8 148.96-19.34 146.71-19.34L146.71-19.34Q145.35-19.34 144.08-18.53 142.81-17.72 142.03-16.09 141.24-14.45 141.24-11.96L141.24-11.96 141.24-11.38Q141.24-7.37 143.22-5.13 145.2-2.88 148.32-2.88L148.32-2.88Q150.08-2.88 151.43-3.54 152.77-4.2 154.04-5.76L154.04-5.76 155.26-4.64Q153.89-2.1 151.79-0.85 149.69 0.39 147.1 0.39ZM181.77-7.23L179.77 0.24Q179.08 0.15 178.23 0.1 177.38 0.05 176.55 0.02 175.71 0 175.03 0L175.03 0 159.41 0 159.31-1.86 162.29-2.54Q162.34-2.78 162.38-3.64 162.43-4.49 162.46-6.05 162.48-7.62 162.48-9.72L162.48-9.72 162.48-18.9Q162.48-21.09 162.48-22.61 162.48-24.12 162.43-25 162.38-25.88 162.29-26.07L162.29-26.07 159.31-26.81 159.41-28.66 170.88-28.66 171.03-26.71 166.97-26.07Q166.88-25.93 166.83-25.12 166.78-24.32 166.73-22.78 166.68-21.24 166.68-18.9L166.68-18.9 166.68-9.72Q166.68-7.18 166.73-5.3 166.78-3.42 166.83-2.88L166.83-2.88Q167.51-2.78 168.22-2.76 168.93-2.73 169.9-2.73L169.9-2.73 173.57-2.73Q174.69-2.73 175.47-2.78 176.25-2.83 177.03-2.93L177.03-2.93 179.57-7.71 181.77-7.23ZM193.78 0L183.23 0 183.13-1.81 186.41-2.49Q186.45-2.69 186.48-3.17 186.5-3.66 186.55-4.74 186.6-5.81 186.6-7.71L186.6-7.71 186.6-10.94Q186.6-12.99 186.5-14.65 186.41-16.31 186.26-17.19L186.26-17.19 182.99-17.87 182.99-19.48 189.92-21.29 190.65-20.61Q190.51-19.09 190.43-17.63 190.36-16.16 190.36-14.21L190.36-14.21 190.36-8.06Q190.36-5.81 190.43-4.35 190.51-2.88 190.61-2.49L190.61-2.49 193.88-1.81 193.78 0ZM188.51-26.81L188.51-26.81Q187.24-26.81 186.36-27.64 185.48-28.47 185.48-29.69L185.48-29.69Q185.48-30.86 186.36-31.71 187.24-32.57 188.51-32.57L188.51-32.57Q189.77-32.57 190.61-31.71 191.44-30.86 191.44-29.69L191.44-29.69Q191.44-28.47 190.61-27.64 189.77-26.81 188.51-26.81ZM204.57 0.39L204.57 0.39Q202.76 0.39 200.95-0.02 199.15-0.44 197.88-1.12L197.88-1.12 197.63-6.35 200.03-6.35 201-2.83Q202.61-1.66 204.91-1.66L204.91-1.66Q206.52-1.66 207.57-2.47 208.62-3.27 208.62-4.64L208.62-4.64Q208.62-5.96 207.69-6.88 206.76-7.81 204.08-8.94L204.08-8.94Q200.61-10.45 199.2-11.87 197.78-13.28 197.78-15.43L197.78-15.43Q197.78-17.19 198.83-18.53 199.88-19.87 201.74-20.63 203.59-21.39 206.03-21.39L206.03-21.39Q207.4-21.39 208.82-21.17 210.23-20.95 211.16-20.51L211.16-20.51 211.7-15.43 209.4-15.43 208.23-18.75Q207.74-19.04 207.06-19.21 206.37-19.38 205.59-19.38L205.59-19.38Q203.88-19.38 202.86-18.58 201.83-17.77 201.83-16.5L201.83-16.5Q201.83-15.04 202.96-14.14 204.08-13.23 206.91-11.91L206.91-11.91Q210.13-10.45 211.4-9.03 212.67-7.62 212.67-5.62L212.67-5.62Q212.67-2.98 210.38-1.29 208.08 0.39 204.57 0.39ZM230.59-4.25L231.47-3.03Q230.54-1.42 228.93-0.51 227.32 0.39 225.56 0.39L225.56 0.39Q222.63 0.39 220.7-1.42 218.77-3.22 218.77-6.84L218.77-6.84 218.92-18.51 215.5-18.51 215.5-19.53 221.8-25.24 222.73-25.24 222.63-19.63 222.58-7.62Q222.58-5.08 223.68-3.86 224.78-2.64 226.78-2.64L226.78-2.64Q227.9-2.64 228.86-3.1 229.81-3.56 230.59-4.25L230.59-4.25ZM230-18.51L220.87-18.51 220.87-20.95 230-20.95 230-18.51Z" opacity="1" transform="matrix(1,0,0,1,0,0)" fill="#39a9e1" class="wordmark-text-0" data-fill-palette-color="primary" id="text-0"></path></svg></g></svg></g></svg></g></svg></g><g transform="matrix(1,0,0,1,422.2317065462278,0)"><svg viewBox="0 0 133.76046560911445 133.76046560911445" height="133.76046560911445" width="133.76046560911445"><g><svg></svg></g><g id="icon-0"><svg viewBox="0 0 133.76046560911445 133.76046560911445" height="133.76046560911445" width="133.76046560911445"><g><path d="M0 66.88c0-36.937 29.943-66.88 66.88-66.88 36.937 0 66.88 29.943 66.88 66.88 0 36.937-29.943 66.88-66.88 66.88-36.937 0-66.88-29.943-66.88-66.88zM66.88 128.659c34.119 0 61.778-27.659 61.779-61.779 0-34.119-27.659-61.778-61.779-61.778-34.119 0-61.778 27.659-61.778 61.778 0 34.119 27.659 61.778 61.778 61.779z" data-fill-palette-color="accent" fill="#24a8df" stroke="transparent"></path><ellipse rx="66.21143047651165" ry="66.21143047651165" cx="66.88023280455722" cy="66.88023280455722" fill="#24a8df" stroke="transparent" stroke-width="0" fill-opacity="1" data-fill-palette-color="accent"></ellipse></g><g transform="matrix(1,0,0,1,31.781677514726468,31.838333778309767)"><svg viewBox="0 0 70.19711057966151 70.08379805249491" height="70.08379805249491" width="70.19711057966151"><g><svg xmlns="http://www.w3.org/2000/svg" xmlns:xlink="http://www.w3.org/1999/xlink" version="1.1" x="0" y="0" viewBox="18.974999999999994 19.075 61.95000000000003 61.849999999999966" enable-background="new 0 0 100 100" xml:space="preserve" height="70.08379805249491" width="70.19711057966151" class="icon-cg-0" data-fill-palette-color="quaternary" id="cg-0"><g fill="#ffffff" data-fill-palette-color="quaternary"><path d="M47.4 32.4v-3.5h-2.5c-0.4 0-0.7-0.4-0.5-0.8l5.1-8.8c0.2-0.3 0.7-0.3 0.9 0l5.1 8.8c0.2 0.3-0.1 0.8-0.5 0.8h-2.5v3.6c-0.9-0.1-1.9-0.2-2.8-0.2C49 32.2 48.2 32.3 47.4 32.4zM38.4 30.6l-9.9-2.6c-0.4-0.1-0.7 0.3-0.6 0.6l2.6 9.9c0.1 0.4 0.6 0.5 0.9 0.2l1.8-1.8 2.3 2.3c0.3-0.4 0.7-0.9 1.1-1.3 0.8-0.9 1.7-1.6 2.7-2.3l-2.4-2.4 1.8-1.8C38.9 31.1 38.8 30.7 38.4 30.6zM64.2 39.5l2.6-2.6 1.8 1.8c0.3 0.3 0.8 0.2 0.9-0.2l2.6-9.9c0.1-0.4-0.3-0.7-0.6-0.6l-9.9 2.6c-0.4 0.1-0.5 0.6-0.2 0.9l1.8 1.8-2.6 2.6C61.9 36.8 63.2 38.1 64.2 39.5zM71.2 44.9v2.5h-3.6c0.1 0.9 0.2 1.9 0.2 2.8 0 0.8-0.1 1.6-0.2 2.4h3.5v2.5c0 0.4 0.4 0.7 0.8 0.5l8.8-5.1c0.3-0.2 0.3-0.7 0-0.9l-8.8-5.1C71.6 44.2 71.2 44.5 71.2 44.9zM61.6 69.4l9.9 2.6c0.4 0.1 0.7-0.3 0.6-0.6l-2.6-9.9c-0.1-0.4-0.6-0.5-0.9-0.2l-1.8 1.8-2.4-2.4c-1 1.4-2.2 2.7-3.6 3.7l2.3 2.3-1.8 1.8C61.1 68.9 61.2 69.3 61.6 69.4zM19.2 50.5l8.8 5.1c0.3 0.2 0.8-0.1 0.8-0.5v-2.5h3.1c-0.1-0.8-0.2-1.6-0.2-2.4 0-1 0.1-1.9 0.2-2.8h-3.1v-2.5c0-0.4-0.4-0.7-0.8-0.5l-8.8 5.1C18.9 49.7 18.9 50.3 19.2 50.5zM49.8 68.2c-0.8 0-1.6-0.1-2.4-0.2v3.1h-2.5c-0.4 0-0.7 0.4-0.5 0.8l5.1 8.8c0.2 0.3 0.7 0.3 0.9 0l5.1-8.8c0.2-0.3-0.1-0.8-0.5-0.8h-2.5V68C51.7 68.2 50.7 68.2 49.8 68.2zM35.3 61l-2.1 2.1-1.8-1.8c-0.3-0.3-0.8-0.2-0.9 0.2l-2.6 9.9c-0.1 0.4 0.3 0.7 0.6 0.6l9.9-2.6c0.4-0.1 0.5-0.6 0.2-0.9l-1.8-1.8 2.1-2.1C37.6 63.6 36.4 62.4 35.3 61zM49.8 36.1c7.8 0 14.1 6.3 14.1 14.1 0 7.8-6.3 14.1-14.1 14.1S35.7 58 35.7 50.2C35.7 42.4 42 36.1 49.8 36.1zM41.5 52.1c0 0.3 0.2 0.5 0.5 0.5h1.6c0.1 0.4 0.2 0.8 0.4 1.2 0.8 2 2.2 3.4 4.2 4.1 1.7 0.6 3.4 0.5 5.1 0.1 0.4-0.1 0.9-0.3 1.3-0.5 0.4-0.2 0.5-0.5 0.4-0.9-0.2-0.4-0.4-0.9-0.6-1.3-0.2-0.4-0.4-0.5-0.8-0.4-0.5 0.1-1.1 0.3-1.6 0.4-1 0.2-2.1 0.2-3.1-0.1-1.3-0.4-1.9-1.3-2.4-2.5h3.4c0.3 0 0.5-0.2 0.5-0.5V51c0-0.3-0.2-0.5-0.5-0.5h-3.8c0-0.3 0-0.6 0-0.9h3.8c0.3 0 0.5-0.2 0.5-0.5V48c0-0.3-0.2-0.5-0.5-0.5h-3.3c0 0 0 0 0 0 0.4-0.9 1-1.6 1.9-2 1.1-0.4 2.2-0.4 3.4-0.2 0.5 0.1 1.1 0.3 1.6 0.4 0.4 0.1 0.6 0 0.8-0.4 0.2-0.4 0.4-0.9 0.6-1.3 0.2-0.4 0.1-0.7-0.3-0.9C54.6 43 54.5 43 54.4 43c-1.6-0.6-3.2-0.9-4.9-0.6-1.2 0.2-2.3 0.6-3.3 1.4-1.2 0.9-2 2.2-2.5 3.6l-0.1 0.2H42c-0.3 0-0.5 0.2-0.5 0.5v1.1c0 0.3 0.2 0.5 0.5 0.5h1.3c0 0.3 0 0.6 0 0.9H42c-0.3 0-0.5 0.2-0.5 0.5V52.1z" fill="#ffffff" data-fill-palette-color="quaternary"></path></g></svg></g></svg></g></svg></g></svg></g></svg></g><defs></defs></svg><rect width="395.52" height="95.15410829009926" fill="none" stroke="none" visibility="hidden"></rect></g></svg></g></svg>